<?xml version="1.0" encoding="utf-8"?>
<!-- Generator: Adobe Illustrator 26.0.0, SVG Export Plug-In . SVG Version: 6.00 Build 0)  -->
<svg version="1.1" id="Layer_1" xmlns="http://www.w3.org/2000/svg" xmlns:xlink="http://www.w3.org/1999/xlink" x="0px" y="0px"
	 viewBox="0 0 200 200" style="enable-background:new 0 0 200 200;" xml:space="preserve">
<style type="text/css">
	.st0{fill:#377588;}
</style>
<g>
	<g>
		<path class="st0" d="M131.4,24.5H97L0,174.8h37.1l19.6-32.2l16.1-26.4l34.4-56.4l0.8-1.3l12.7,57.7l5.3,24l4.8-24l10.3-52
			L131.4,24.5z M161.5,146.4h-34l6.3,28.3h34.8L161.5,146.4z M54.3,116.2l-14.4,26.4h85.7l0.5-2.4l4.8-24H54.3z"/>
	</g>
	<path class="st0" d="M124.9,146.4l0.8-3.9l0.5-2.4l4.8-24l10.3-52l7.9-39.7h-34.8l-3.4,17.2l-3.1,15.6l-0.5,2.5L96,116.2l-5.3,26.4
		l-6.4,32.2h110.1l5.6-28.3H124.9z"/>
	<path class="st0" d="M108.1,58.5"/>
</g>
</svg>
